<?xml version="1.0" encoding="UTF-8"?>
<svg xmlns="http://www.w3.org/2000/svg" width="16" height="16" fill="currentColor" viewBox="0 0 16 16">
    <path d="M0 8a8 8 0 1 1 16 0A8 8 0 0 1 0 8zm7.5-6.923c-.67.204-1.335.82-1.887 1.855-.143.268-.276.56-.395.872.705.157 1.472.257 2.282.287V1.077zM4.249 3.539c.142-.384.304-.744.481-1.078a6.7 6.7 0 0 1 .597-.933A7.01 7.01 0 0 0 2.255 3.131c.043.16.087.319.134.478.142.441.295.844.463 1.207.024.06.05.119.075.176.123.34.256.672.395.988.094-.223.192-.441.293-.653.185-.408.381-.8.586-1.174.018-.033.037-.065.055-.096zM3.509 7.5c.036-1.07.188-2.087.436-3.008a9.124 9.124 0 0 1-1.565-.667A6.964 6.964 0 0 0 1.018 7.5h2.491zm1.4-2.741a12.344 12.344 0 0 0-.4 2.741H7.5V5.091c-.91-.03-1.783-.145-2.591-.332zM8.5 5.09V7.5h2.99a12.342 12.342 0 0 0-.399-2.741c-.808.187-1.681.301-2.591.332zM4.51 8.5c.035.987.176 1.914.399 2.741A13.612 13.612 0 0 1 7.5 10.91V8.5H4.51zm3.99 0v2.409c.91.03 1.783.145 2.591.332.223-.827.364-1.754.4-2.741H8.5zm-3.282 3.696c.12.312.252.604.395.872.552 1.035 1.218 1.65 1.887 1.855V11.91c-.81.03-1.577.13-2.282.287zm.11 2.276a6.696 6.696 0 0 1-.598-.933 8.853 8.853 0 0 1-.481-1.079 8.38 8.38 0 0 0-.293.653c-.205.375-.4.767-.586 1.22-.018.032-.037.064-.055.095a6.72 6.72 0 0 1-1.072 1.602 7.01 7.01 0 0 0 3.085 1.502zM8.5 11.909v3.014c.67-.204 1.335-.82 1.887-1.855.143-.268.276-.56.395-.872A12.63 12.63 0 0 0 8.5 11.91zm3.555-.401c.57.185 1.095.409 1.565.667A6.963 6.963 0 0 0 14.982 8.5h-2.49a13.36 13.36 0 0 1-.437 3.008zM14.982 7.5a6.963 6.963 0 0 0-1.362-3.675c-.47.258-.995.482-1.565.667.248.92.4 1.938.437 3.008h2.49zM11.27 2.461c.177.334.339.694.482 1.078a8.368 8.368 0 0 0 .094.222c.05-.02.099-.041.148-.064.793-.307 1.459-.718 1.945-1.201a.48.48 0 0 0-.013-.02c-.451-.464-.956-.86-1.513-1.181a6.718 6.718 0 0 1-.597.933c-.265.42-.54.823-.828 1.201a4.8 4.8 0 0 1-.218.032z"/>
</svg>