<svg xmlns="http://www.w3.org/2000/svg"
     width="18"
     height="18"
     viewBox="0 0 24 24"
     aria-hidden="true">
     <path d="M12 .5A12 12 0 0 0 0 12.6c0 5.3 3.4 9.8 8.1 11.4.6.1.9-.2.9-.6v-2.1c-3.3.7-4-1.6-4-1.6-.5-1.2-1.1-1.6-1.1-1.6-.9-.6.1-.6.1-.6 1 .1 1.6 1 1.6 1 .9 1.6 2.5 1.1 3 .8.1-.7.4-1.1.7-1.3-2.7-.3-5.6-1.4-5.6-6.3 0-1.4.5-2.5 1.2-3.4-.1-.3-.5-1.6.1-3.3 0 0 1-.3 3.5 1.3a12.1 12.1 0 0 1 6.4 0C16.7 4 17.7 4.2 17.7 4.2c.6 1.7.2 3 .1 3.3.8.9 1.2 2 1.2 3.4 0 4.9-2.9 6-5.6 6.3.4.3.8 1 .8 2.1v3.1c0 .4.3.7.9.6A12.1 12.1 0 0 0 24 12.6 12 12 0 0 0 12 .5Z"/>
</svg>