<svg width="512" height="512" version="1.1"
     xmlns="http://www.w3.org/2000/svg"
     desc="Created with imagetracer.js version 1.2.6" >
    <path fill="rgb(0,0,0)" stroke="rgb(0,0,0)" stroke-width="1" opacity="0" d="M 0 0 L 512 0 L 512 512 L 0 512 L 0 0 Z M 311 22 L 300 27 Q 293 32 290 42 Q 288 56 293 63 L 340 111 L 220 203 L 198 197 L 186 196 L 185 195 L 173 195 L 172 194 L 149 195 L 125 200 L 102 209 L 88 219 L 82 225 L 166 309 L 46 448 Q 31 466 22 490 Q 46 481 65 466 L 198 352 L 204 346 L 288 430 Q 301 418 308 400 L 316 371 L 317 351 L 318 350 L 316 321 L 312 303 L 309 296 L 310 291 L 402 172 L 446 216 L 457 222 Q 473 224 481 217 Q 488 212 490 202 Q 492 186 485 180 L 333 27 Q 326 20 311 22 Z " /><path fill="rgb(247,53,67)" stroke="rgb(247,53,67)" stroke-width="1" opacity="0.7254901960784313" d="M 310.5 22 L 322 22.5 L 310.5 23 L 310.5 22 Z " />
    <path fill="rgb(247,53,67)" stroke="rgb(247,53,67)" stroke-width="1" opacity="0.7254901960784313" d="M 306.5 23 L 309 23.5 Q 301.4 25.4 297 30.5 L 291.5 40 L 291 38.5 L 299.5 27 L 306.5 23 Z " />
    <path fill="rgb(247,53,67)" stroke="rgb(247,53,67)" stroke-width="1" opacity="0.7254901960784313" d="M 323.5 23 L 332.5 27 L 485 179.5 L 489 188.5 L 488 188.5 L 484 179.5 L 332.5 28 L 323.5 24 L 323.5 23 Z " />
    <path fill="rgb(247,53,67)" stroke="rgb(247,53,67)" stroke-width="1" opacity="0.7254901960784313" d="M 290.5 41 L 291 44.5 L 290 44.5 L 290.5 41 Z " /><path fill="rgb(247,53,67)" stroke="rgb(247,53,67)" stroke-width="1" opacity="0.7254901960784313" d="M 290.5 52 L 291 55.5 L 290 55.5 L 290.5 52 Z " /><path fill="rgb(247,53,67)" stroke="rgb(247,53,67)" stroke-width="1" opacity="0.7254901960784313" d="M 291.5 57 L 296 64.5 L 293 62.5 L 291.5 57 Z " /><path fill="rgb(247,53,67)" stroke="rgb(247,53,67)" stroke-width="1" opacity="0.7254901960784313" d="M 296.5 66 L 341 110.5 L 337.5 114 L 220.5 204 L 217.5 204 L 217.5 203 L 225.5 199 L 340 110.5 L 296.5 66 Z " /><path fill="rgb(247,53,67)" stroke="rgb(247,53,67)" stroke-width="1" opacity="0.7254901960784313" d="M 375.5 145 L 374.5 147 L 375.5 145 Z " /><path fill="rgb(247,53,67)" stroke="rgb(247,53,67)" stroke-width="1" opacity="0.7254901960784313" d="M 372.5 149 L 370.5 152 L 372.5 149 Z " /><path fill="rgb(247,53,67)" stroke="rgb(247,53,67)" stroke-width="1" opacity="0.7254901960784313" d="M 369.5 153 L 367.5 156 L 369.5 153 Z " /><path fill="rgb(247,53,67)" stroke="rgb(247,53,67)" stroke-width="1" opacity="0.7254901960784313" d="M 366.5 157 L 364.5 160 L 366.5 157 Z " /><path fill="rgb(247,53,67)" stroke="rgb(247,53,67)" stroke-width="1" opacity="0.7254901960784313" d="M 362.5 162 L 360.5 165 L 362.5 162 Z " /><path fill="rgb(247,53,67)" stroke="rgb(247,53,67)" stroke-width="1" opacity="0.7254901960784313" d="M 359.5 166 L 357.5 169 L 359.5 166 Z " /><path fill="rgb(247,53,67)" stroke="rgb(247,53,67)" stroke-width="1" opacity="0.7254901960784313" d="M 355.5 171 L 354.5 173 L 355.5 171 Z " /><path fill="rgb(247,53,67)" stroke="rgb(247,53,67)" stroke-width="1" opacity="0.7254901960784313" d="M 401.5 171 L 445.5 216 L 401.5 172 L 400 173.5 L 310 290.5 L 309 295.5 L 312 304.5 L 311 304.5 L 308 292.5 L 401.5 171 Z " /><path fill="rgb(247,53,67)" stroke="rgb(247,53,67)" stroke-width="1" opacity="0.7254901960784313" d="M 352.5 175 L 350.5 178 L 352.5 175 Z " /><path fill="rgb(247,53,67)" stroke="rgb(247,53,67)" stroke-width="1" opacity="0.7254901960784313" d="M 349.5 179 L 347.5 182 L 349.5 179 Z " /><path fill="rgb(247,53,67)" stroke="rgb(247,53,67)" stroke-width="1" opacity="0.7254901960784313" d="M 345.5 184 L 344.5 186 L 345.5 184 Z " /><path fill="rgb(247,53,67)" stroke="rgb(247,53,67)" stroke-width="1" opacity="0.7254901960784313" d="M 342.5 188 L 340.5 191 L 342.5 188 Z " /><path fill="rgb(247,53,67)" stroke="rgb(247,53,67)" stroke-width="1" opacity="0.7254901960784313" d="M 489.5 190 L 490 201.5 L 489 201.5 L 489.5 190 Z " /><path fill="rgb(247,53,67)" stroke="rgb(247,53,67)" stroke-width="1" opacity="0.7254901960784313" d="M 339.5 192 L 337.5 195 L 339.5 192 Z " /><path fill="rgb(247,53,67)" stroke="rgb(247,53,67)" stroke-width="1" opacity="0.7254901960784313" d="M 162.5 194 L 172 194.5 L 162.5 195 L 162.5 194 Z " /><path fill="rgb(247,53,67)" stroke="rgb(247,53,67)" stroke-width="1" opacity="0.7254901960784313" d="M 148.5 195 L 155 195.5 L 148.5 196 L 148.5 195 Z " /><path fill="rgb(247,53,67)" stroke="rgb(247,53,67)" stroke-width="1" opacity="0.7254901960784313" d="M 179.5 195 L 185 195.5 L 179.5 196 L 179.5 195 Z " /><path fill="rgb(247,53,67)" stroke="rgb(247,53,67)" stroke-width="1" opacity="0.7254901960784313" d="M 141.5 196 L 146 196.5 L 141.5 197 L 141.5 196 Z " /><path fill="rgb(247,53,67)" stroke="rgb(247,53,67)" stroke-width="1" opacity="0.7254901960784313" d="M 188.5 196 L 192 196.5 L 188.5 197 L 188.5 196 Z " /><path fill="rgb(247,53,67)" stroke="rgb(247,53,67)" stroke-width="1" opacity="0.7254901960784313" d="M 136.5 197 L 140 197.5 L 136.5 198 L 136.5 197 Z " /><path fill="rgb(247,53,67)" stroke="rgb(247,53,67)" stroke-width="1" opacity="0.7254901960784313" d="M 194.5 197 L 198 197.5 L 194.5 198 L 194.5 197 Z " /><path fill="rgb(247,53,67)" stroke="rgb(247,53,67)" stroke-width="1" opacity="0.7254901960784313" d="M 335.5 197 L 334.5 199 L 335.5 197 Z " /><path fill="rgb(247,53,67)" stroke="rgb(247,53,67)" stroke-width="1" opacity="0.7254901960784313" d="M 132.5 198 L 135 198.5 L 132.5 199 L 132.5 198 Z " /><path fill="rgb(247,53,67)" stroke="rgb(247,53,67)" stroke-width="1" opacity="0.7254901960784313" d="M 199.5 198 L 202 198.5 L 199.5 199 L 199.5 198 Z " /><path fill="rgb(247,53,67)" stroke="rgb(247,53,67)" stroke-width="1" opacity="0.7254901960784313" d="M 203.5 199 L 206 199.5 L 203.5 200 L 203.5 199 Z " /><path fill="rgb(247,53,67)" stroke="rgb(247,53,67)" stroke-width="1" opacity="0.7254901960784313" d="M 124.5 200 L 127 200.5 L 124.5 201 L 124.5 200 Z " /><path fill="rgb(247,53,67)" stroke="rgb(247,53,67)" stroke-width="1" opacity="0.7254901960784313" d="M 207.5 200 L 210 200.5 L 207.5 201 L 207.5 200 Z " /><path fill="rgb(247,53,67)" stroke="rgb(247,53,67)" stroke-width="1" opacity="0.7254901960784313" d="M 332.5 201 L 330.5 204 L 332.5 201 Z " /><path fill="rgb(247,53,67)" stroke="rgb(247,53,67)" stroke-width="1" opacity="0.7254901960784313" d="M 112.5 204 L 114 204.5 L 110.5 206 L 110.5 205 L 112.5 204 Z " /><path fill="rgb(247,53,67)" stroke="rgb(247,53,67)" stroke-width="1" opacity="0.7254901960784313" d="M 329.5 205 L 327.5 208 L 329.5 205 Z " /><path fill="rgb(247,53,67)" stroke="rgb(247,53,67)" stroke-width="1" opacity="0.7254901960784313" d="M 107.5 206 L 109 206.5 L 93.5 216 L 95.5 213 L 107.5 206 Z " /><path fill="rgb(247,53,67)" stroke="rgb(247,53,67)" stroke-width="1" opacity="0.7254901960784313" d="M 487.5 206 L 488 207.5 L 480.5 217 L 472.5 221 L 472.5 220 L 483 213.5 L 487.5 206 Z " /><path fill="rgb(247,53,67)" stroke="rgb(247,53,67)" stroke-width="1" opacity="0.7254901960784313" d="M 325.5 210 L 324.5 212 L 325.5 210 Z " /><path fill="rgb(247,53,67)" stroke="rgb(247,53,67)" stroke-width="1" opacity="0.7254901960784313" d="M 322.5 214 L 320.5 217 L 322.5 214 Z " /><path fill="rgb(247,53,67)" stroke="rgb(247,53,67)" stroke-width="1" opacity="0.7254901960784313" d="M 91.5 216 L 88.5 220 L 83 224.5 L 165.5 308 L 82 224.5 L 87.5 219 L 91.5 216 Z " /><path fill="rgb(247,53,67)" stroke="rgb(247,53,67)" stroke-width="1" opacity="0.7254901960784313" d="M 447.5 216 L 455 220.5 L 453.5 221 Q 448.5 219.5 447.5 216 Z " /><path fill="rgb(247,53,67)" stroke="rgb(247,53,67)" stroke-width="1" opacity="0.7254901960784313" d="M 319.5 218 L 317.5 221 L 319.5 218 Z " /><path fill="rgb(247,53,67)" stroke="rgb(247,53,67)" stroke-width="1" opacity="0.7254901960784313" d="M 456.5 221 L 460 221.5 L 456.5 222 L 456.5 221 Z " /><path fill="rgb(247,53,67)" stroke="rgb(247,53,67)" stroke-width="1" opacity="0.7254901960784313" d="M 467.5 221 L 471 221.5 L 467.5 222 L 467.5 221 Z " /><path fill="rgb(247,53,67)" stroke="rgb(247,53,67)" stroke-width="1" opacity="0.7254901960784313" d="M 315.5 223 L 314.5 225 L 315.5 223 Z " /><path fill="rgb(247,53,67)" stroke="rgb(247,53,67)" stroke-width="1" opacity="0.7254901960784313" d="M 312.5 227 L 310.5 230 L 312.5 227 Z " /><path fill="rgb(247,53,67)" stroke="rgb(247,53,67)" stroke-width="1" opacity="0.7254901960784313" d="M 309.5 231 L 307.5 234 L 309.5 231 Z " /><path fill="rgb(247,53,67)" stroke="rgb(247,53,67)" stroke-width="1" opacity="0.7254901960784313" d="M 305.5 236 L 304.5 238 L 305.5 236 Z " /><path fill="rgb(247,53,67)" stroke="rgb(247,53,67)" stroke-width="1" opacity="0.7254901960784313" d="M 302.5 240 L 300.5 243 L 302.5 240 Z " /><path fill="rgb(247,53,67)" stroke="rgb(247,53,67)" stroke-width="1" opacity="0.7254901960784313" d="M 299.5 244 L 297.5 247 L 299.5 244 Z " /><path fill="rgb(247,53,67)" stroke="rgb(247,53,67)" stroke-width="1" opacity="0.7254901960784313" d="M 295.5 249 L 294.5 251 L 295.5 249 Z " /><path fill="rgb(247,53,67)" stroke="rgb(247,53,67)" stroke-width="1" opacity="0.7254901960784313" d="M 292.5 253 L 290.5 256 L 292.5 253 Z " /><path fill="rgb(247,53,67)" stroke="rgb(247,53,67)" stroke-width="1" opacity="0.7254901960784313" d="M 312.5 306 L 313 308.5 L 312 308.5 L 312.5 306 Z " /><path fill="rgb(247,53,67)" stroke="rgb(247,53,67)" stroke-width="1" opacity="0.7254901960784313" d="M 313.5 310 L 314 313.5 L 313 313.5 L 313.5 310 Z " /><path fill="rgb(247,53,67)" stroke="rgb(247,53,67)" stroke-width="1" opacity="0.7254901960784313" d="M 314.5 315 L 315 318.5 L 314 318.5 L 314.5 315 Z " /><path fill="rgb(247,53,67)" stroke="rgb(247,53,67)" stroke-width="1" opacity="0.7254901960784313" d="M 315.5 320 L 316 324.5 L 315 324.5 L 315.5 320 Z " /><path fill="rgb(247,53,67)" stroke="rgb(247,53,67)" stroke-width="1" opacity="0.7254901960784313" d="M 316.5 327 L 317 334.5 L 316 334.5 L 316.5 327 Z " /><path fill="rgb(247,53,67)" stroke="rgb(247,53,67)" stroke-width="1" opacity="0.7254901960784313" d="M 317.5 340 L 318 349.5 L 317 349.5 L 317.5 340 Z " /><path fill="rgb(247,53,67)" stroke="rgb(247,53,67)" stroke-width="1" opacity="0.7254901960784313" d="M 203.5 345 L 287.5 429 L 292 424.5 Q 300.5 415.5 305.5 403 L 306 404.5 Q 298.9 419.4 287.5 430 L 203.5 345 Z " /><path fill="rgb(247,53,67)" stroke="rgb(247,53,67)" stroke-width="1" opacity="0.7254901960784313" d="M 316.5 355 L 317 363.5 L 316 363.5 L 316.5 355 Z " /><path fill="rgb(247,53,67)" stroke="rgb(247,53,67)" stroke-width="1" opacity="0.7254901960784313" d="M 315.5 365 L 316 370.5 L 315 370.5 L 315.5 365 Z " /><path fill="rgb(247,53,67)" stroke="rgb(247,53,67)" stroke-width="1" opacity="0.7254901960784313" d="M 314.5 372 L 315 375.5 L 314 375.5 L 314.5 372 Z " /><path fill="rgb(247,53,67)" stroke="rgb(247,53,67)" stroke-width="1" opacity="0.7254901960784313" d="M 313.5 377 L 314 379.5 L 313 379.5 L 313.5 377 Z " /><path fill="rgb(247,53,67)" stroke="rgb(247,53,67)" stroke-width="1" opacity="0.7254901960784313" d="M 312.5 381 L 313 383.5 L 312 383.5 L 312.5 381 Z " /><path fill="rgb(247,53,67)" stroke="rgb(247,53,67)" stroke-width="1" opacity="0.7254901960784313" d="M 311.5 385 L 312 387.5 L 310.5 391 L 310 388.5 L 311.5 385 Z " /><path fill="rgb(247,53,67)" stroke="rgb(247,53,67)" stroke-width="1" opacity="0.7254901960784313" d="M 308.5 395 L 309 396.5 L 306.5 402 L 306 400.5 L 308.5 395 Z " /><path fill="rgb(253,54,68)" stroke="rgb(253,54,68)" stroke-width="1" opacity="0.996078431372549" d="M 295.5 37 L 299 37.5 L 295.5 38 L 295.5 37 Z " /><path fill="rgb(253,54,68)" stroke="rgb(253,54,68)" stroke-width="1" opacity="0.996078431372549" d="M 304.5 37 L 308 37.5 L 304.5 38 L 304.5 37 Z " /><path fill="rgb(253,54,68)" stroke="rgb(253,54,68)" stroke-width="1" opacity="0.996078431372549" d="M 316.5 41 L 470.5 196 L 316.5 41 Z " /><path fill="rgb(253,54,68)" stroke="rgb(253,54,68)" stroke-width="1" opacity="0.996078431372549" d="M 290.5 45 L 291 51.5 L 290 51.5 L 290.5 45 Z " /><path fill="rgb(253,54,68)" stroke="rgb(253,54,68)" stroke-width="1" opacity="0.996078431372549" d="M 296.5 65 L 446.5 216 L 296.5 65 Z " /><path fill="rgb(253,54,68)" stroke="rgb(253,54,68)" stroke-width="1" opacity="0.996078431372549" d="M 373.5 147 L 372.5 149 L 373.5 147 Z " /><path fill="rgb(253,54,68)" stroke="rgb(253,54,68)" stroke-width="1" opacity="0.996078431372549" d="M 363.5 160 L 362.5 162 L 363.5 160 Z " /><path fill="rgb(253,54,68)" stroke="rgb(253,54,68)" stroke-width="1" opacity="0.996078431372549" d="M 353.5 173 L 352.5 175 L 353.5 173 Z " /><path fill="rgb(253,54,68)" stroke="rgb(253,54,68)" stroke-width="1" opacity="0.996078431372549" d="M 343.5 186 L 342.5 188 L 343.5 186 Z " /><path fill="rgb(253,54,68)" stroke="rgb(253,54,68)" stroke-width="1" opacity="0.996078431372549" d="M 155.5 195 L 160 195.5 L 155.5 196 L 155.5 195 Z " /><path fill="rgb(253,54,68)" stroke="rgb(253,54,68)" stroke-width="1" opacity="0.996078431372549" d="M 173.5 195 L 179 195.5 L 173.5 196 L 173.5 195 Z " /><path fill="rgb(253,54,68)" stroke="rgb(253,54,68)" stroke-width="1" opacity="0.996078431372549" d="M 185.5 196 L 188 196.5 L 185.5 197 L 185.5 196 Z " /><path fill="rgb(253,54,68)" stroke="rgb(253,54,68)" stroke-width="1" opacity="0.996078431372549" d="M 333.5 199 L 332.5 201 L 333.5 199 Z " /><path fill="rgb(253,54,68)" stroke="rgb(253,54,68)" stroke-width="1" opacity="0.996078431372549" d="M 218.5 204 Q 241.2 210.8 257 224.5 L 255 224.5 L 257 227.5 L 254 225.5 L 252 221 L 236.5 212 L 218.5 205 L 218.5 204 Z " /><path fill="rgb(253,54,68)" stroke="rgb(253,54,68)" stroke-width="1" opacity="0.996078431372549" d="M 474.5 204 L 475 207.5 L 474 207.5 L 474.5 204 Z " /><path fill="rgb(253,54,68)" stroke="rgb(253,54,68)" stroke-width="1" opacity="0.996078431372549" d="M 323.5 212 L 322.5 214 L 323.5 212 Z " /><path fill="rgb(253,54,68)" stroke="rgb(253,54,68)" stroke-width="1" opacity="0.996078431372549" d="M 474.5 213 L 475 215.5 L 474 215.5 L 474.5 213 Z " /><path fill="rgb(253,54,68)" stroke="rgb(253,54,68)" stroke-width="1" opacity="0.996078431372549" d="M 95.5 214 L 94.5 216 L 95.5 214 Z " /><path fill="rgb(253,54,68)" stroke="rgb(253,54,68)" stroke-width="1" opacity="0.996078431372549" d="M 92.5 216 L 90.5 219 L 92.5 216 Z " /><path fill="rgb(253,54,68)" stroke="rgb(253,54,68)" stroke-width="1" opacity="0.996078431372549" d="M 87.5 220 L 84 224.5 L 250.5 391 L 252 390.5 L 250.5 392 L 83 224.5 L 87.5 220 Z " /><path fill="rgb(253,54,68)" stroke="rgb(253,54,68)" stroke-width="1" opacity="0.996078431372549" d="M 460.5 221 L 467 221.5 L 460.5 222 L 460.5 221 Z " /><path fill="rgb(253,54,68)" stroke="rgb(253,54,68)" stroke-width="1" opacity="0.996078431372549" d="M 258.5 225 L 260.5 228 L 258.5 225 Z " /><path fill="rgb(253,54,68)" stroke="rgb(253,54,68)" stroke-width="1" opacity="0.996078431372549" d="M 313.5 225 L 312.5 227 L 313.5 225 Z " /><path fill="rgb(253,54,68)" stroke="rgb(253,54,68)" stroke-width="1" opacity="0.996078431372549" d="M 262.5 228 L 267.5 234 L 262.5 228 Z " /><path fill="rgb(253,54,68)" stroke="rgb(253,54,68)" stroke-width="1" opacity="0.996078431372549" d="M 258.5 231 L 261 234.5 L 259 233.5 L 258.5 231 Z " /><path fill="rgb(253,54,68)" stroke="rgb(253,54,68)" stroke-width="1" opacity="0.996078431372549" d="M 303.5 238 L 302.5 240 L 303.5 238 Z " /><path fill="rgb(253,54,68)" stroke="rgb(253,54,68)" stroke-width="1" opacity="0.996078431372549" d="M 277.5 243 L 281.5 248 L 277.5 243 Z " /><path fill="rgb(253,54,68)" stroke="rgb(253,54,68)" stroke-width="1" opacity="0.996078431372549" d="M 296.5 247 L 295.5 249 L 296.5 247 Z " /><path fill="rgb(253,54,68)" stroke="rgb(253,54,68)" stroke-width="1" opacity="0.996078431372549" d="M 283.5 250 L 286.5 254 L 283.5 250 Z " /><path fill="rgb(253,54,68)" stroke="rgb(253,54,68)" stroke-width="1" opacity="0.996078431372549" d="M 293.5 251 L 292.5 253 L 293.5 251 Z " /><path fill="rgb(253,54,68)" stroke="rgb(253,54,68)" stroke-width="1" opacity="0.996078431372549" d="M 287.5 255 L 290 256.5 L 288.5 257 L 287.5 255 Z " /><path fill="rgb(253,54,68)" stroke="rgb(253,54,68)" stroke-width="1" opacity="0.996078431372549" d="M 275.5 272 L 276 274.5 L 275 274.5 L 275.5 272 Z " /><path fill="rgb(253,54,68)" stroke="rgb(253,54,68)" stroke-width="1" opacity="0.996078431372549" d="M 276.5 277 L 277 279.5 L 276 279.5 L 276.5 277 Z " /><path fill="rgb(253,54,68)" stroke="rgb(253,54,68)" stroke-width="1" opacity="0.996078431372549" d="M 277.5 282 L 278 285.5 L 277 285.5 L 277.5 282 Z " /><path fill="rgb(253,54,68)" stroke="rgb(253,54,68)" stroke-width="1" opacity="0.996078431372549" d="M 278.5 289 L 279 293.5 L 278 293.5 L 278.5 289 Z " /><path fill="rgb(253,54,68)" stroke="rgb(253,54,68)" stroke-width="1" opacity="0.996078431372549" d="M 279.5 300 L 280 314.5 L 279 314.5 L 279.5 300 Z " /><path fill="rgb(253,54,68)" stroke="rgb(253,54,68)" stroke-width="1" opacity="0.996078431372549" d="M 278.5 321 L 279 326.5 L 278 326.5 L 278.5 321 Z " /><path fill="rgb(253,54,68)" stroke="rgb(253,54,68)" stroke-width="1" opacity="0.996078431372549" d="M 277.5 330 L 278 332.5 L 277 332.5 L 277.5 330 Z " /><path fill="rgb(253,54,68)" stroke="rgb(253,54,68)" stroke-width="1" opacity="0.996078431372549" d="M 276.5 335 L 277 338.5 L 276 338.5 L 276.5 335 Z " /><path fill="rgb(253,54,68)" stroke="rgb(253,54,68)" stroke-width="1" opacity="0.996078431372549" d="M 274.5 344 L 275 346.5 L 274 346.5 L 274.5 344 Z " /><path fill="rgb(253,54,68)" stroke="rgb(253,54,68)" stroke-width="1" opacity="0.996078431372549" d="M 268.5 363 L 269 364.5 L 267.5 367 L 267 365.5 L 268.5 363 Z " /><path fill="rgb(253,54,68)" stroke="rgb(253,54,68)" stroke-width="1" opacity="0.996078431372549" d="M 265.5 370 L 266 371.5 L 264 372.5 L 265.5 370 Z " /><path fill="rgb(253,54,68)" stroke="rgb(253,54,68)" stroke-width="1" opacity="0.996078431372549" d="M 263.5 374 L 262.5 376 L 263.5 374 Z " /><path fill="rgb(253,54,68)" stroke="rgb(253,54,68)" stroke-width="1" opacity="0.996078431372549" d="M 261.5 377 L 260.5 379 L 261.5 377 Z " /><path fill="rgb(253,54,68)" stroke="rgb(253,54,68)" stroke-width="1" opacity="0.996078431372549" d="M 258.5 381 L 257.5 383 L 258.5 381 Z " /><path fill="rgb(253,54,68)" stroke="rgb(253,54,68)" stroke-width="1" opacity="0.996078431372549" d="M 255.5 385 L 252.5 389 L 255.5 385 Z " /><path fill="rgb(254,55,69)" stroke="rgb(254,55,69)" stroke-width="1" opacity="1" d="M 299.5 37 Q 309.5 37 315.5 41 L 471 196.5 Q 475 202.5 475 212.5 L 473 220 Q 467.4 222.3 456.5 221 L 448.5 217 L 375.5 144 L 329 204.5 L 327 209 Q 324.3 207.9 325 210.5 L 289.5 256 L 287 254.5 L 276 240 L 274 240 L 274 238 L 272 238 Q 273.1 235.3 270.5 236 Q 263 227 252.5 221 L 252 222.5 L 261 235.5 L 273 263.5 L 279 294.5 L 279 320.5 L 278 321.5 L 278 329.5 L 276 335.5 L 276 340.5 L 267 367.5 Q 260.4 380.9 250.5 391 L 84 224.5 L 89.5 219 Q 118.8 194.8 172.5 195 L 173.5 196 L 184.5 196 L 201.5 199 L 221 205 L 224.5 200 L 258.5 174 L 263 172 Q 261.9 169.3 264.5 170 L 342 110.5 L 295 63.5 Q 289.2 56.8 291 42.5 L 292 39 L 299.5 37 Z M 222 205 L 224 207 L 226 207 L 222 205 Z M 229 208 L 229 209 L 235 212 L 237 212 L 229 208 Z M 245 216 L 246 218 L 247 218 L 245 216 Z M 248 218 L 249 220 L 250 220 L 248 218 Z " /><path fill="rgb(224,43,61)" stroke="rgb(224,43,61)" stroke-width="1" opacity="0.9764705882352941" d="M 309.5 23 Q 325.7 20.8 332.5 28 L 484 179.5 Q 491.2 186.3 489 202.5 Q 486.8 210.3 481.5 215 L 473.5 220 L 474 218.5 Q 476.4 213.4 475 204.5 L 471 195.5 L 316.5 41 Q 309.8 35.2 295.5 37 L 292.5 39 L 293 37.5 L 298.5 29 L 309.5 23 Z " /><path fill="rgb(224,43,61)" stroke="rgb(224,43,61)" stroke-width="1" opacity="0.9764705882352941" d="M 375.5 146 L 401 170.5 L 309 290.5 L 308 295.5 L 312 305.5 L 316 325.5 L 317 354.5 L 316 355.5 L 316 364.5 L 315 365.5 L 314 376.5 L 306 402.5 Q 299 418 287.5 429 L 251 391.5 Q 280.5 361 280 300.5 L 279 299.5 L 279 289.5 L 276 272.5 L 270 253.5 Q 263.8 236.7 254 223.5 L 256.5 225 L 277 242.5 L 289.5 258 L 375.5 146 Z " />
    <path fill="rgb(209,210,212)" stroke="rgb(209,210,212)" stroke-width="1" opacity="0.9647058823529412" d="M 166.5 308 L 203 344.5 L 203 346.5 L 64.5 466 Q 45.7 480.9 22 490 Q 31.1 466.3 46 447.5 L 166.5 308 Z " />
</svg>